<svg width="115" height="26" viewBox="0 0 115 26" fill="none" xmlns="http://www.w3.org/2000/svg">
<path d="M5.84 25H0.44V0.879999H13.76C15.752 0.879999 17.444 1.168 18.836 1.744C20.228 2.296 21.284 3.112 22.004 4.192C22.724 5.272 23.084 6.58 23.084 8.116C23.084 9.436 22.832 10.564 22.328 11.5C21.824 12.436 21.068 13.192 20.06 13.768C19.052 14.32 17.792 14.668 16.28 14.812V15.1C17.36 15.388 18.164 15.82 18.692 16.396C19.22 16.972 19.712 17.68 20.168 18.52L23.66 25H17.396L14.084 18.736C13.748 18.112 13.4 17.62 13.04 17.26C12.68 16.9 12.212 16.648 11.636 16.504C11.084 16.336 10.34 16.252 9.404 16.252H5.84V25ZM5.84 5.74V12.184H13.724C14.996 12.184 15.932 11.968 16.532 11.536C17.132 11.08 17.432 10.216 17.432 8.944C17.432 7.744 17.132 6.916 16.532 6.46C15.932 5.98 14.996 5.74 13.724 5.74H5.84ZM30.7658 25H25.3658V6.964H30.7658V25ZM30.7658 5.128H25.3658V0.879999H30.7658V5.128ZM47.0203 25H40.3603L32.1523 6.964H38.1643L43.5643 19.744H43.9243L49.3603 6.964H55.2643L47.0203 25ZM66.266 25.36C64.274 25.36 62.51 25.024 60.974 24.352C59.438 23.68 58.25 22.648 57.41 21.256C56.57 19.864 56.15 18.112 56.15 16C56.15 14.08 56.57 12.424 57.41 11.032C58.25 9.616 59.414 8.524 60.902 7.756C62.414 6.988 64.166 6.604 66.158 6.604C68.126 6.604 69.842 6.94 71.306 7.612C72.794 8.284 73.946 9.28 74.762 10.6C75.578 11.896 75.986 13.48 75.986 15.352C75.986 15.664 75.974 15.952 75.95 16.216C75.926 16.48 75.89 16.768 75.842 17.08H59.642V14.236H72.026L70.802 16C70.802 15.76 70.802 15.532 70.802 15.316C70.802 15.1 70.802 14.884 70.802 14.668C70.802 13.3 70.43 12.316 69.686 11.716C68.942 11.116 67.73 10.816 66.05 10.816C64.226 10.816 62.954 11.176 62.234 11.896C61.514 12.592 61.154 13.708 61.154 15.244V16.612C61.154 18.148 61.514 19.276 62.234 19.996C62.954 20.692 64.238 21.04 66.086 21.04C67.67 21.04 68.786 20.836 69.434 20.428C70.082 20.02 70.406 19.432 70.406 18.664V18.304H75.806V18.7C75.806 19.996 75.41 21.148 74.618 22.156C73.826 23.164 72.71 23.956 71.27 24.532C69.854 25.084 68.186 25.36 66.266 25.36ZM83.6759 25H78.2759V0.879999H83.6759V25ZM91.9025 25H86.5025V0.879999H91.9025V25ZM104.305 25.36C102.313 25.36 100.549 25.024 99.0131 24.352C97.4771 23.68 96.2891 22.648 95.4491 21.256C94.6091 19.864 94.1891 18.112 94.1891 16C94.1891 14.08 94.6091 12.424 95.4491 11.032C96.2891 9.616 97.4531 8.524 98.9411 7.756C100.453 6.988 102.205 6.604 104.197 6.604C106.165 6.604 107.881 6.94 109.345 7.612C110.833 8.284 111.985 9.28 112.801 10.6C113.617 11.896 114.025 13.48 114.025 15.352C114.025 15.664 114.013 15.952 113.989 16.216C113.965 16.48 113.929 16.768 113.881 17.08H97.6811V14.236H110.065L108.841 16C108.841 15.76 108.841 15.532 108.841 15.316C108.841 15.1 108.841 14.884 108.841 14.668C108.841 13.3 108.469 12.316 107.725 11.716C106.981 11.116 105.769 10.816 104.089 10.816C102.265 10.816 100.993 11.176 100.273 11.896C99.5531 12.592 99.1931 13.708 99.1931 15.244V16.612C99.1931 18.148 99.5531 19.276 100.273 19.996C100.993 20.692 102.277 21.04 104.125 21.04C105.709 21.04 106.825 20.836 107.473 20.428C108.121 20.02 108.445 19.432 108.445 18.664V18.304H113.845V18.7C113.845 19.996 113.449 21.148 112.657 22.156C111.865 23.164 110.749 23.956 109.309 24.532C107.893 25.084 106.225 25.36 104.305 25.36Z" fill="white"/>
</svg>
