<svg width="52" height="52" viewBox="0 0 52 52" fill="none" xmlns="http://www.w3.org/2000/svg">
<path d="M26 32.5002L19.5 26.0002M26 32.5002C29.0265 31.3492 31.9299 29.8974 34.6666 28.1669M26 32.5002V43.3335C26 43.3335 32.565 42.1419 34.6666 39.0002C37.0066 35.4902 34.6666 28.1669 34.6666 28.1669M19.5 26.0002C20.6529 23.009 22.1047 20.1417 23.8333 17.4419C26.3579 13.4053 29.8731 10.0818 34.0448 7.78741C38.2164 5.493 42.9057 4.30402 47.6666 4.33354C47.6666 10.2269 45.9766 20.5835 34.6666 28.1669M19.5 26.0002H8.66663C8.66663 26.0002 9.85829 19.4352 13 17.3335C16.51 14.9935 23.8333 17.3335 23.8333 17.3335M9.74996 35.7502C6.49996 38.4802 5.41663 46.5835 5.41663 46.5835C5.41663 46.5835 13.52 45.5002 16.25 42.2502C17.7883 40.4302 17.7666 37.6352 16.055 35.9452C15.2128 35.1414 14.1034 34.6769 12.9398 34.6409C11.7761 34.6049 10.6402 35 9.74996 35.7502Z" stroke="black" stroke-width="3.52" stroke-linecap="round" stroke-linejoin="round"/>
</svg>
