<svg width="28" height="28" viewBox="0 0 28 28" fill="none" xmlns="http://www.w3.org/2000/svg">
<path d="M3.5 8.16666H7M7 8.16666C7 10.0997 8.567 11.6667 10.5 11.6667C12.433 11.6667 14 10.0997 14 8.16666C14 6.23366 12.433 4.66666 10.5 4.66666C8.567 4.66666 7 6.23366 7 8.16666ZM3.5 19.8333H10.5M21 19.8333H24.5M21 19.8333C21 21.7663 19.433 23.3333 17.5 23.3333C15.567 23.3333 14 21.7663 14 19.8333C14 17.9003 15.567 16.3333 17.5 16.3333C19.433 16.3333 21 17.9003 21 19.8333ZM17.5 8.16666H24.5" stroke="#141718" stroke-width="2" stroke-linecap="round"/>
</svg>
