<svg width="52" height="52" viewBox="0 0 52 52" fill="none" xmlns="http://www.w3.org/2000/svg">
<path d="M34.6666 39.0002L39 43.3335L47.6666 34.6668M47.6666 21.6668H4.33331M47.6666 26.0002V17.7668C47.6666 15.3399 47.6667 14.1265 47.1943 13.1995C46.7789 12.3842 46.116 11.7213 45.3006 11.3058C44.3737 10.8335 43.1602 10.8335 40.7333 10.8335H11.2666C8.83975 10.8335 7.62631 10.8335 6.69935 11.3058C5.88399 11.7213 5.22107 12.3842 4.80562 13.1995C4.33331 14.1265 4.33331 15.3399 4.33331 17.7668V34.2335C4.33331 36.6604 4.33331 37.8738 4.80562 38.8008C5.22107 39.6162 5.88399 40.2791 6.69935 40.6945C7.62631 41.1668 8.83975 41.1668 11.2666 41.1668H26" stroke="black" stroke-width="3.5" stroke-linecap="round" stroke-linejoin="round"/>
</svg>
