<svg width="52" height="52" viewBox="0 0 52 52" fill="none" xmlns="http://www.w3.org/2000/svg">
<path d="M29.3138 18.0959C28.0736 18.9801 26.5558 19.5002 24.9166 19.5002C20.7284 19.5002 17.3333 16.105 17.3333 11.9168C17.3333 7.72867 20.7284 4.3335 24.9166 4.3335C27.6314 4.3335 30.013 5.76007 31.3527 7.90447M12.9999 43.5223H18.6555C19.3929 43.5223 20.1258 43.6101 20.8407 43.7856L26.8165 45.2377C28.1132 45.5536 29.4639 45.5843 30.7741 45.3299L37.3814 44.0444C39.1268 43.7044 40.7323 42.8686 41.9907 41.6446L46.6653 37.0972C48.0003 35.8008 48.0003 33.6971 46.6653 32.3985C45.4634 31.2293 43.5602 31.0977 42.2004 32.0892L36.7522 36.064C35.972 36.6344 35.0226 36.9415 34.0462 36.9415H28.7852L32.1339 36.9413C34.0214 36.9413 35.5503 35.454 35.5503 33.618V32.9533C35.5503 31.4287 34.4836 30.0994 32.9637 29.7309L27.7952 28.4739C26.9541 28.2699 26.0927 28.1668 25.2267 28.1668C23.1363 28.1668 19.3524 29.8976 19.3524 29.8976L12.9999 32.5541M43.3332 14.0835C43.3332 18.2717 39.9381 21.6668 35.7499 21.6668C31.5618 21.6668 28.1666 18.2717 28.1666 14.0835C28.1666 9.89534 31.5618 6.50016 35.7499 6.50016C39.9381 6.50016 43.3332 9.89534 43.3332 14.0835ZM4.33325 31.6335L4.33325 44.2002C4.33325 45.4136 4.33325 46.0203 4.5694 46.4838C4.77713 46.8915 5.10859 47.2229 5.51627 47.4307C5.97975 47.6668 6.58647 47.6668 7.79992 47.6668H9.53325C10.7467 47.6668 11.3534 47.6668 11.8169 47.4307C12.2246 47.2229 12.556 46.8915 12.7638 46.4838C12.9999 46.0203 12.9999 45.4136 12.9999 44.2002V31.6335C12.9999 30.42 12.9999 29.8133 12.7638 29.3498C12.556 28.9422 12.2246 28.6107 11.8169 28.403C11.3534 28.1668 10.7467 28.1668 9.53325 28.1668L7.79992 28.1668C6.58647 28.1668 5.97975 28.1668 5.51627 28.403C5.10859 28.6107 4.77713 28.9422 4.5694 29.3498C4.33325 29.8133 4.33325 30.42 4.33325 31.6335Z" stroke="black" stroke-width="3.5" stroke-linecap="round" stroke-linejoin="round"/>
</svg>
